<svg xmlns="http://www.w3.org/2000/svg" viewBox="0 0 512 512" role="img" aria-label="Activos QR">
  <rect width="512" height="512" rx="96" fill="#df4f45"/>
  <path fill="#fff" d="M256 92 104 206v205c0 11 9 20 20 20h264c11 0 20-9 20-20V206L256 92Z"/>
  <path fill="#df4f45" d="M148 146V92h70v2l-70 52Z"/>
  <rect x="156" y="242" width="56" height="56" rx="10" fill="#df4f45"/>
  <rect x="228" y="242" width="56" height="56" rx="10" fill="#df4f45"/>
  <rect x="300" y="242" width="56" height="56" rx="10" fill="#df4f45"/>
  <rect x="156" y="314" width="56" height="56" rx="10" fill="#df4f45"/>
  <rect x="300" y="314" width="56" height="56" rx="10" fill="#df4f45"/>
  <rect x="228" y="314" width="56" height="56" rx="10" fill="#2a3140"/>
</svg>
